<svg width="174" height="156" viewBox="0 0 174 156" fill="none" xmlns="http://www.w3.org/2000/svg">
<path d="M173.103 50.7384C173.103 64.1234 167.963 76.9797 158.786 86.49C137.659 108.388 117.168 131.223 95.2524 152.328C90.229 157.095 82.2602 156.921 77.4531 151.938L14.3135 86.49C-4.77117 66.7069 -4.77117 34.7697 14.3135 14.987C33.5857 -4.99013 64.9823 -4.99013 84.2543 14.987L86.5497 17.3659L88.8433 14.9884C98.0835 5.40514 110.668 0 123.814 0C136.961 0 149.544 5.40462 158.786 14.987C167.964 24.498 173.103 37.3536 173.103 50.7384Z" fill="url(#paint0_linear_2218_261)"/>
<defs>
<linearGradient id="paint0_linear_2218_261" x1="86.5514" y1="0" x2="99.5" y2="106.5" gradientUnits="userSpaceOnUse">
<stop stop-color="white"/>
<stop offset="1" stop-color="#BA7742"/>
</linearGradient>
</defs>
</svg>
